<?xml version="1.0" encoding="UTF-8" standalone="no"?>
<!-- Created with Inkscape (http://www.inkscape.org/) -->

<svg
   version="1.1"
   id="svg258"
   width="930.26953"
   height="999.23059"
   viewBox="0 0 930.26956 999.23059"
   sodipodi:docname="THCA_FINAL_ASSETS copy [Recovered].ai"
   xmlns:inkscape="http://www.inkscape.org/namespaces/inkscape"
   xmlns:sodipodi="http://sodipodi.sourceforge.net/DTD/sodipodi-0.dtd"
   xmlns="http://www.w3.org/2000/svg"
   xmlns:svg="http://www.w3.org/2000/svg">
  <defs
     id="defs262">
    <clipPath
       clipPathUnits="userSpaceOnUse"
       id="clipPath426">
      <path
         d="M 0,1080 H 1080 V 0 H 0 Z"
         id="path424" />
    </clipPath>
  </defs>
  <sodipodi:namedview
     id="namedview260"
     pagecolor="#505050"
     bordercolor="#ffffff"
     borderopacity="1"
     inkscape:showpageshadow="0"
     inkscape:pageopacity="0"
     inkscape:pagecheckerboard="1"
     inkscape:deskcolor="#505050"
     showgrid="false" />
  <g
     id="g416"
     inkscape:groupmode="layer"
     inkscape:label="Page 6"
     transform="matrix(1.3333333,0,0,-1.3333333,-254.86528,1219.6149)">
    <path
       d="M 0,0 H 1080 V 1080 H 0 Z"
       style="fill:#ef9f9c;fill-opacity:1;fill-rule:nonzero;stroke:none"
       id="path418" />
    <g
       id="g420"
       style="fill:#f3ecad;fill-opacity:1"
       inkscape:export-filename="g420.svg"
       inkscape:export-xdpi="25.32"
       inkscape:export-ydpi="25.32">
      <g
         id="g422"
         clip-path="url(#clipPath426)"
         style="fill:#f3ecad;fill-opacity:1">
        <g
           id="g428"
           transform="translate(489.731,565.893)"
           style="fill:#f3ecad;fill-opacity:1">
          <path
             d="m 0,0 c 0,-32.34 -18.785,-58.557 -41.958,-58.557 -23.172,0 -41.957,26.217 -41.957,58.557 0,32.339 18.785,58.556 41.957,58.556 C -18.785,58.556 0,32.339 0,0"
             style="fill:#f3ecad;fill-opacity:1;fill-rule:nonzero;stroke:none"
             id="path430" />
        </g>
        <g
           id="g432"
           transform="translate(674.1842,565.893)"
           style="fill:#f3ecad;fill-opacity:1">
          <path
             d="m 0,0 c 0,-32.34 -18.785,-58.557 -41.958,-58.557 -23.172,0 -41.957,26.217 -41.957,58.557 0,32.339 18.785,58.556 41.957,58.556 C -18.785,58.556 0,32.339 0,0"
             style="fill:#f3ecad;fill-opacity:1;fill-rule:nonzero;stroke:none"
             id="path434" />
        </g>
        <g
           id="g436"
           transform="translate(539.9974,403.8315)"
           style="fill:#f3ecad;fill-opacity:1">
          <path
             d="m 0,0 c -53.156,0 -104.707,15.447 -149.107,44.682 l -0.384,0.253 c -5.184,3.417 -6.617,10.389 -3.2,15.574 3.417,5.184 10.389,6.617 15.574,3.201 l 0.38,-0.251 C -96.026,36.653 -48.744,22.485 0,22.485 h 0.22 c 48.823,0.042 96.159,14.295 136.89,41.216 5.179,3.424 12.155,2 15.578,-3.18 3.424,-5.18 2,-12.155 -3.18,-15.579 C 105.095,15.587 53.478,0.046 0.24,0 Z"
             style="fill:#f3ecad;fill-opacity:1;fill-rule:nonzero;stroke:none"
             id="path438" />
        </g>
        <g
           id="g440"
           transform="translate(780.8751,412.3862)"
           style="fill:#f3ecad;fill-opacity:1">
          <path
             d="m 0,0 c -13.167,-31.13 -32.016,-59.087 -56.025,-83.096 -24.009,-24.008 -51.967,-42.858 -83.096,-56.025 -32.226,-13.631 -66.462,-20.542 -101.754,-20.542 -35.293,0 -69.527,6.911 -101.754,20.542 -31.129,13.167 -59.086,32.017 -83.095,56.025 -24.01,24.009 -42.86,51.966 -56.026,83.096 -13.63,32.227 -20.542,66.462 -20.542,101.754 0,35.292 6.912,69.527 20.542,101.755 13.166,31.129 32.016,59.086 56.026,83.095 24.009,24.008 51.966,42.858 83.095,56.025 32.227,13.631 66.461,20.542 101.754,20.542 35.292,0 69.528,-6.911 101.754,-20.542 31.129,-13.167 59.087,-32.017 83.096,-56.025 C -32.016,262.595 -13.167,234.638 0,203.509 13.631,171.281 20.542,137.046 20.542,101.754 20.542,66.462 13.631,32.227 0,0 m 30.336,-12.831 c 11.601,27.429 18.879,56.139 21.746,85.666 l 55.894,28.919 -55.894,28.919 c -2.867,29.527 -10.145,58.237 -21.746,85.666 -0.978,2.311 -1.986,4.606 -3.019,6.888 l 33.922,52.953 -62.848,-2.903 c -9.309,12.957 -19.696,25.187 -31.126,36.617 -11.43,11.43 -23.66,21.817 -36.616,31.126 l 2.902,62.848 -52.954,-33.922 c -2.28,1.033 -4.575,2.04 -6.887,3.018 -26.4,11.166 -53.988,18.314 -82.348,21.393 8.534,3.86 16.229,9.187 22.898,15.856 7.127,7.127 12.723,15.427 16.631,24.668 4.047,9.568 6.099,19.732 6.099,30.208 0,0.658 -0.533,1.192 -1.192,1.192 -10.416,0 -20.523,-2.03 -30.044,-6.032 0.154,1.933 0.237,3.876 0.245,5.827 0.045,10.389 -1.98,20.558 -6.02,30.224 -0.254,0.607 -0.952,0.894 -1.56,0.64 -8.877,-3.71 -16.841,-8.919 -23.712,-15.494 -3.735,7.579 -8.676,14.467 -14.739,20.531 -0.466,0.464 -1.22,0.464 -1.686,0 -6.063,-6.064 -11.004,-12.952 -14.74,-20.531 -6.871,6.575 -14.834,11.784 -23.711,15.494 -0.608,0.254 -1.306,-0.033 -1.56,-0.64 -4.04,-9.666 -6.065,-19.835 -6.02,-30.224 0.008,-1.951 0.091,-3.894 0.244,-5.827 -9.52,4.002 -19.627,6.032 -30.043,6.032 -0.659,0 -1.193,-0.534 -1.193,-1.192 0,-10.476 2.052,-20.64 6.1,-30.208 3.909,-9.241 9.504,-17.541 16.631,-24.668 6.668,-6.669 14.364,-11.996 22.897,-15.856 -28.359,-3.079 -55.947,-10.227 -82.347,-21.393 -2.312,-0.978 -4.607,-1.985 -6.887,-3.019 l -52.954,33.923 2.902,-62.848 c -12.956,-9.309 -25.186,-19.696 -36.616,-31.126 -11.43,-11.43 -21.817,-23.66 -31.126,-36.617 l -62.848,2.903 33.922,-52.953 c -1.033,-2.282 -2.041,-4.577 -3.018,-6.888 -11.602,-27.429 -18.88,-56.139 -21.747,-85.666 l -55.894,-28.919 55.894,-28.919 c 2.867,-29.527 10.145,-58.237 21.747,-85.666 0.977,-2.313 1.984,-4.607 3.018,-6.888 l -33.922,-52.953 62.848,2.902 c 9.309,-12.957 19.696,-25.186 31.126,-36.616 11.43,-11.43 23.659,-21.817 36.616,-31.126 l -2.902,-62.848 52.954,33.922 c 2.28,-1.034 4.575,-2.041 6.887,-3.019 27.429,-11.601 56.138,-18.879 85.666,-21.746 l 28.919,-55.895 28.919,55.895 c 29.528,2.867 58.237,10.145 85.666,21.746 2.312,0.978 4.607,1.985 6.887,3.019 l 52.954,-33.922 -2.902,62.847 c 12.957,9.31 25.186,19.697 36.616,31.127 11.43,11.43 21.817,23.659 31.126,36.616 l 62.848,-2.902 -33.922,52.953 c 1.033,2.281 2.041,4.575 3.019,6.888"
             style="fill:#f3ecad;fill-opacity:1;fill-rule:nonzero;stroke:none"
             id="path442" />
        </g>
      </g>
    </g>
  </g>
</svg>
